#!OML:ASF H:\Pregnant\Project 1\Capture day 1\Session 1\femalepreg.ASF
:FULLY-SPECIFIED
:DEGREES
464
root 16.9292 15.3458 28.1574 398.17 -102.261 -373.905
lowerback -14.1623 5.17086 -4.48595
upperback -6.6198 7.11319 -5.26516
thorax 1.02462 3.38712 -1.95165
lowerneck -23.8427 2.83511 3.13585
upperneck 16.6296 3.17042 -1.66325
head 9.21268 1.48913 -0.62206
rclavicle -2.59911e-014 7.15625e-015
rhumerus -26.428 36.0585 -102.096
rradius 62.8804
rwrist -26.6091
rhand -12.0254 -19.8494
rfingers 7.12502
rthumb 14.0325 -49.3557
lclavicle -2.59911e-014 7.15625e-015
lhumerus -42.8439 20.5876 62.0603
lradius 26.385
lwrist 44.8193
lhand -38.8905 13.0408
lfingers 7.12502
lthumb -11.8981 42.6827
rfemur -44.2746 17.486 0.990946
rtibia 41.0889
rfoot -19.5285 -12.4981
rtoes -20.2582
lfemur -25.7574 -16.4526 -9.43473
ltibia 2.7696
lfoot -2.31729 12.2395
ltoes -18.6136
465
root 16.9511 15.3472 28.0792 397.915 -102.147 -373.774
lowerback -14.1095 5.1568 -4.16242
upperback -6.62659 7.05328 -5.25984
thorax 1.0296 3.35299 -2.13496
lowerneck -23.7732 2.80028 3.01166
upperneck 16.9645 3.13203 -1.48878
head 9.31199 1.48334 -0.546672
rclavicle 5.01931e-015 1.11319e-014
rhumerus -26.4735 33.1881 -101.577
rradius 60.3957
rwrist -26.1012
rhand -15.6053 -20.3585
rfingers 7.12502
rthumb 10.5809 -50.0722
lclavicle 5.01931e-015 1.11319e-014
lhumerus -40.9166 17.5533 65.2648
lradius 27.2451
lwrist 43.5083
lhand -38.069 12.4313
lfingers 7.12502
lthumb -11.1058 42.1174
rfemur -44.1386 17.3882 1.55312
rtibia 41.1015
rfoot -19.5507 -12.443
rtoes -19.8424
lfemur -24.142 -16.7184 -8.99319
ltibia 3.18055e-015
lfoot -0.945478 12.399
ltoes -19.0306
466
root 16.972 15.3494 28.002 397.256 -102.022 -373.234
lowerback -14.0564 5.16197 -3.70495
upperback -6.63247 7.00429 -5.26725
thorax 1.05312 3.32207 -2.40301
lowerneck -23.7301 2.78596 2.93193
upperneck 17.2943 3.10598 -1.32175
head 9.41559 1.48518 -0.478739
rclavicle -3.55825e-014 -1.27222e-014
rhumerus -26.4843 30.1735 -101.002
rradius 57.9202
rwrist -25.969
rhand -19.2165 -21.0394
rfingers 7.12502
rthumb 7.09621 -50.9004
lclavicle -3.55825e-014 -1.27222e-014
lhumerus -39.2053 14.426 68.0928
lradius 28.2303
lwrist 41.859
lhand -36.9253 12.0539
lfingers 7.12502
lthumb -10.0026 41.7962
rfemur -44.0547 17.4365 2.14475
rtibia 41.1576
rfoot -19.5323 -12.4187
rtoes -19.3141
lfemur -24.0178 -16.9034 -8.4452
ltibia -5.1684e-015
lfoot -0.862699 12.7435
ltoes -19.3997
467
root 16.9914 15.3507 27.9258 396.269 -101.907 -372.361
lowerback -14.0159 5.16203 -3.16939
upperback -6.63097 6.94142 -5.26006
thorax 1.09744 3.28328 -2.6997
lowerneck -23.7047 2.81191 2.89355
upperneck 17.6139 3.12617 -1.18498
head 9.52131 1.5076 -0.420755
rclavicle -4.48259e-014 -5.725e-014
rhumerus -26.4572 27.0572 -100.339
rradius 55.4285
rwrist -26.0681
rhand -22.7007 -21.7975
rfingers 7.12502
rthumb 3.73211 -51.7445
lclavicle -4.48259e-014 -5.725e-014
lhumerus -37.7371 11.2892 70.5686
lradius 29.3509
lwrist 39.8414
lhand -35.6535 11.5806
lfingers 7.12502
lthumb -8.77542 41.3782
rfemur -44.006 17.6248 2.73994
rtibia 41.2289
rfoot -19.469 -12.4498
rtoes -18.9138
lfemur -23.86 -17.0483 -7.85514
ltibia -8.66701e-014
lfoot -0.791145 13.0908
ltoes -19.7282
468
root 17.0091 15.35 27.8501 395.033 -101.811 -371.236
lowerback -13.9813 5.16883 -2.5802
upperback -6.63362 6.8813 -5.24168
thorax 1.14402 3.24532 -3.01446
lowerneck -23.6739 2.85485 2.86149
upperneck 17.9294 3.17176 -1.06944
head 9.62595 1.53963 -0.367234
rclavicle -1.94312e-014 1.03368e-014
rhumerus -26.4285 23.836 -99.5685
rradius 52.9405
rwrist -26.3433
rhand -25.897 -22.5984
rfingers 7.12502
rthumb 0.645266 -52.5772
lclavicle -1.94312e-014 1.03368e-014
lhumerus -36.5128 8.14048 72.7375
lradius 30.5927
lwrist 37.3644
lhand -34.3238 10.9053
lfingers 7.12502
lthumb -7.49215 40.7526
rfemur -43.9709 17.9345 3.32362
rtibia 41.2871
rfoot -19.3745 -12.5409
rtoes -18.6175
lfemur -23.676 -17.1572 -7.24106
ltibia 2.62396e-014
lfoot -0.707855 13.4325
ltoes -20.1185
